<?xml version="1.0" encoding="UTF-8" standalone="no"?>
<!-- Created with Inkscape (http://www.inkscape.org/) -->

<svg
   version="1.1"
   id="svg1"
   width="1440"
   height="1440"
   viewBox="0 0 1440 1440"
   sodipodi:docname="logosaas.svg"
   inkscape:version="1.4.3 (0d15f75042, 2025-12-25)"
   xmlns:inkscape="http://www.inkscape.org/namespaces/inkscape"
   xmlns:sodipodi="http://sodipodi.sourceforge.net/DTD/sodipodi-0.dtd"
   xmlns:xlink="http://www.w3.org/1999/xlink"
   xmlns="http://www.w3.org/2000/svg"
   xmlns:svg="http://www.w3.org/2000/svg">
  <defs
     id="defs1">
    <linearGradient
       id="linearGradient8"
       inkscape:collect="always">
      <stop
         style="stop-color:#0054dc;stop-opacity:1"
         offset="0"
         id="stop8" />
      <stop
         style="stop-color:#94e4fc;stop-opacity:1"
         offset="1"
         id="stop9" />
    </linearGradient>
    <radialGradient
       inkscape:collect="always"
       xlink:href="#linearGradient8"
       id="radialGradient9"
       cx="736.13208"
       cy="869.84546"
       fx="736.13208"
       fy="869.84546"
       r="153.35097"
       gradientTransform="matrix(1.5391287,-7.1976886,4.4472168,0.95097399,-4714.9453,4809.7252)"
       gradientUnits="userSpaceOnUse"
       spreadMethod="pad" />
  </defs>
  <sodipodi:namedview
     id="namedview1"
     pagecolor="#ffffff"
     bordercolor="#000000"
     borderopacity="0.25"
     inkscape:showpageshadow="2"
     inkscape:pageopacity="0.0"
     inkscape:pagecheckerboard="0"
     inkscape:deskcolor="#d1d1d1"
     inkscape:zoom="0.27367919"
     inkscape:cx="1496.2774"
     inkscape:cy="1315.4087"
     inkscape:window-width="1920"
     inkscape:window-height="1008"
     inkscape:window-x="0"
     inkscape:window-y="0"
     inkscape:window-maximized="1"
     inkscape:current-layer="g1" />
  <g
     inkscape:groupmode="layer"
     inkscape:label="Image"
     id="g1"
     transform="translate(400.02078,1020.0198)">
    <path
       id="path2"
       style="display:none;fill:#000000"
       d="m 310.64524,-693.92996 c -27.14903,-0.11071 -37.55815,1.33229 -57.07227,7.91211 -27.26529,9.1934 -47.86149,26.33395 -58.89453,49.01367 -3.42956,7.04988 -6.03973,13.99483 -5.80078,15.4336 0.28477,1.71466 10.17703,9.10846 28.71289,21.45898 30.57304,20.37093 41.09953,29.55521 50.45898,44.02344 11.87541,18.35751 16.94645,36.16168 16.90625,59.36328 -0.0295,17.03623 -1.61157,27.78207 -6.5039,44.19727 -5.8594,19.65993 -6.01679,18.64135 3.0664,19.73633 11.00594,1.32677 29.8231,7.85416 40.32617,13.98828 25.2805,14.76461 44.64425,41.72878 53.67579,74.74414 2.72668,9.96758 3.09265,14.22615 3.03515,35.33398 -0.0618,22.69992 -0.2945,24.83811 -4.29101,39.47656 -17.45112,63.92018 -58.19277,113.16277 -146.28711,176.812504 -11.73334,8.477543 -23.88334,17.470364 -27,19.984375 l -5.66602,4.572266 v 11.951172 c 0,9.311585 0.43462,12.120281 1.96875,12.708984 2.05169,0.787307 8.88447,-3.492502 29.66016,-18.578125 6.76263,-4.910472 12.61263,-8.927734 13,-8.927734 0.38737,0 0.70508,6.237075 0.70508,13.859375 0,19.646245 2.23253,39.428401 6.10937,54.1406249 5.09446,19.3329531 17.96231,44.6038461 30.89063,60.6660151 11.9781,14.881606 36.03236,36.076692 50.01367,44.068363 3.10921,1.77722 6.253,3.03972 6.98633,2.80468 0.87235,-0.2796 1.45105,-41.523055 1.67382,-119.287105 l 0.33985,-118.857425 4.32617,-2.22851 c 2.37939,-1.22611 9.72617,-5.82873 16.32617,-10.22657 37.40245,-24.92269 70.44611,-58.10457 91.89063,-92.27343 55.53579,-88.48854 49.64388,-206.37846 -13.70313,-274.19141 -16.28151,-17.42935 -36.44543,-31.09767 -55.88672,-37.88476 l -8.96679,-3.13086 -0.38282,-13.57422 -0.38086,-13.57422 5.38086,0.85937 c 19.92362,3.18591 50.33057,20.09431 71.21875,39.60157 20.49202,19.13729 38.47755,45.30077 48.73438,70.89453 3.07265,7.66715 5.72201,9.63314 7.33203,5.4375 2.03577,-5.30513 3.67257,-31.57386 2.85156,-45.76953 -2.01129,-34.77601 -12.87428,-67.0785 -32.50976,-96.66797 -29.31629,-44.17785 -72.88197,-73.8411 -124.66016,-84.87891 -10.92516,-2.32897 -18.28235,-2.91349 -37.58398,-2.99219 z m -8.27149,3.3711 c 13.34728,-0.44787 27.01702,0.10784 37.16211,1.79492 38.47857,6.3988 75.10432,25.00879 102.86328,52.26758 28.51331,27.99954 45.81253,58.44111 55.65625,97.93945 3.14977,12.63861 4.94881,49.87012 3.01758,62.45508 l -1.11914,7.28906 -6.41602,-13.28906 c -10.45275,-21.65074 -22.23359,-38.17435 -39.45703,-55.33985 -25.63122,-25.545 -54.57043,-42.09091 -80.39062,-45.96289 l -6.10352,-0.91601 -0.9414,13.79883 c -1.34484,19.73202 -1.35811,19.69295 7.33203,22.38672 19.00745,5.89191 38.9582,18.72681 56.12695,36.10937 24.55141,24.85714 40.84453,56.58538 49.45312,96.30273 2.56399,11.82949 2.96899,17.78533 3.02149,44.33204 0.0533,26.96167 -0.31399,32.51916 -3.03906,46 -11.59208,57.34562 -40.83729,106.92554 -87.0293,147.54101 -13.57903,11.93969 -36.79977,29.0332 -51.70898,38.06641 l -8.15625,4.94336 v 117.390622 c 0,64.565023 -0.45,117.376885 -1,117.359375 -3.32432,-0.105816 -27.73878,-19.80336 -38.8711,-31.361328 C 270.81521,45.750014 256.56238,20.8629 249.09445,-7.7248781 c -2.9338,-11.2307899 -3.49202,-16.7632489 -4.10156,-40.6660159 -0.62358,-24.452849 -0.95831,-27.667969 -2.88867,-27.667969 -1.20123,0 -10.8709,6.288123 -21.48828,13.972657 -10.61737,7.684535 -19.75469,13.98454 -20.30469,14 -0.55,0.01547 -1,-4.164987 -1,-9.289063 v -9.316406 l 11.5293,-8.349609 c 48.5013,-35.128096 71.2329,-53.404306 94.96289,-76.349606 25.58099,-24.7351 42.25494,-47.02622 56.26953,-75.22657 20.37428,-40.99737 26.07828,-82.32138 16.50586,-119.59179 -11.97033,-46.60669 -46.8027,-81.16526 -89.35352,-88.65235 -5.08568,-0.89486 -9.72366,-2.03774 -10.30664,-2.53906 -0.58298,-0.50133 0.41284,-5.35481 2.21289,-10.78516 6.77255,-20.43129 9.40694,-50.02046 6.11133,-68.62695 -3.45208,-19.48985 -10.50994,-35.25826 -22.58008,-50.44726 -9.00341,-11.32984 -18.33179,-18.70544 -50.86328,-40.20899 -11.63518,-7.69094 -21.15429,-14.58165 -21.15429,-15.31445 0,-0.7328 1.75868,-5.21246 3.9082,-9.95313 11.80903,-26.04426 36.20391,-44.56506 70.59961,-53.59961 8.84942,-2.32443 21.87343,-3.77479 35.2207,-4.22265 z m -11.23633,57.04492 c -6.38314,-0.0951 -12.95286,2.68289 -18.11523,8.5625 -10.26088,11.6865 -6.35846,31.22192 7.7168,38.63281 3.22702,1.69908 6.60355,2.25763 11.47656,1.89844 16.51852,-1.21761 26.47174,-19.30639 19.24219,-34.9707 -4.21344,-9.1293 -12.11342,-14.00071 -20.32032,-14.12305 z m 0.14063,4.17773 c 9.60133,0.3734 18.68945,8.05541 18.68945,20.61133 0,7.92432 -3.34231,14.16529 -9.64453,18.00781 -16.90084,10.30457 -36.9067,-10.90903 -26.72656,-28.33984 4.30335,-7.36836 11.1123,-10.53478 17.68164,-10.2793 z m -117.72852,36.20899 c -0.0559,9.2e-4 -0.10858,0.005 -0.15625,0.0117 -3.75522,0.54142 -16.23611,18.3749 -18.79297,26.85156 -4.85488,16.09521 -5.61843,39.22782 -1.82031,55.21875 4.17978,17.59781 18.8085,39.62224 33.5,50.4375 10.98449,8.08632 11.69727,7.87981 11.69727,-3.38477 0,-22.70497 8.42086,-40.05027 22.95898,-47.29492 8.51304,-4.24223 17.23883,-4.52709 23.4082,-0.76562 4.96984,3.03011 9.63282,3.48569 9.63282,0.9414 0,-4.54987 -4.56219,-18.3856 -8.22657,-24.94726 -7.9786,-14.28698 -18.58608,-24.31206 -41.10546,-38.84766 -4.03333,-2.6034 -12.10683,-7.85285 -17.93946,-11.66601 -5.7864,-3.78294 -11.42262,-6.58336 -13.15625,-6.55469 z m 0.75,3.73633 c 2.54578,0 47.55487,30.85287 53.72852,36.83007 11.00696,10.65674 18.00766,22.40074 21.10156,35.40039 l 0.84766,3.56446 -4.16993,-2.08008 c -13.69517,-6.83205 -31.08379,-1.03121 -41.26562,13.76758 -6.28452,9.13424 -9.35262,19.25245 -9.50977,31.35547 -0.075,5.77238 -0.56195,10.49414 -1.08203,10.49414 -2.38302,0 -15.40495,-12.07386 -21.40625,-19.84766 -13.10994,-16.98202 -18.52539,-33.20111 -18.52539,-55.48437 0,-14.51796 2.35277,-26.91489 6.7793,-35.70899 3.36473,-6.68464 11.93213,-18.29101 13.50195,-18.29101 z m 93.49414,185.42382 c -7.38353,0.0108 -14.80734,0.66089 -19.74609,1.94727 -22.96067,5.9805 -42.02482,23.13258 -50.4043,45.34766 l -2.99804,7.94726 -0.36719,121.66602 c -0.32468,107.59888 -0.13588,121.66797 1.63867,121.66797 1.10362,0 11.46823,-7.13838 23.0332,-15.86329 83.46944,-62.97148 117.84802,-107.12835 127.78907,-164.13671 3.03066,-17.37975 2.03976,-44.81746 -2.09571,-58 -9.28674,-29.60312 -30.80351,-51.6255 -57.34179,-58.6875 -4.78064,-1.27218 -12.12428,-1.89948 -19.50782,-1.88868 z m -0.62304,3.14649 c 19.449,-0.27394 37.63615,7.43136 52.74414,22.62109 16.93563,17.02727 24.93921,38.34367 25.08398,66.8086 0.30804,60.56878 -31.27994,110.38444 -109.02148,171.9414 -10.26667,8.1293 -23.31667,18.23265 -29,22.45117 l -10.33203,7.66993 0.041,-111.03125 c 0.0231,-62.25385 0.59967,-115.4244 1.3125,-121.03125 3.32103,-26.12174 23.49827,-49.20607 49.36914,-56.47852 6.69642,-1.8824 13.31974,-2.85986 19.80274,-2.95117 z" />
    <path
       style="display:inline;fill:url(#radialGradient9);fill-opacity:1;stroke-width:2.64137"
       d="M 288.37681,386.26686 C 243.53436,353.10533 206.1545,309.47696 184.14006,264.60571 163.89263,223.33606 157.65449,197.96627 156.06742,150.43732 c -1.67955,-50.29901 -3.10614,-62.072082 -7.52153,-62.072082 -1.91234,0 -18.77726,10.720835 -37.47761,23.824082 l -34.000662,23.82406 -1.66853,-7.31553 c -4.43615,-19.45018 -5.04122,-18.66164 39.111442,-50.973081 144.36914,-105.651117 207.86033,-171.215014 249.04461,-257.174859 24.7279,-51.61207 35.43015,-96.28689 35.18625,-146.87899 -0.31136,-64.58089 -20.89575,-119.09266 -61.04053,-161.64824 -29.24197,-30.99803 -63.5845,-42.55873 -98.60867,-57.3726 -7.13173,-3.01644 -21.60592,-5.50913 -22.36779,-6.27096 -0.76186,-0.76188 4.5065,-19.92855 6.03833,-30.02007 3.63182,-23.92613 8.74341,-48.05181 7.44968,-72.21741 -1.74645,-32.62167 -4.59614,-67.26972 -20.40741,-95.85692 -21.47871,-38.83411 -59.31861,-67.08903 -95.56608,-92.6926 -15.96506,-11.27699 -51.761682,-24.75087 -52.547942,-26.02307 -0.78628,-1.27222 2.24641,-14.66806 10.61586,-31.39761 8.36943,-16.72953 38.790312,-51.5043 62.418502,-65.44525 60.68946,-35.80779 158.0784,-41.76469 238.95342,-14.61584 119.27149,40.03808 215.28689,155.05565 230.21481,275.77609 3.0828,24.93011 3.75765,85.36393 0.98424,88.13737 -0.98097,0.98093 -8.10812,-10.29599 -15.83818,-25.0598 -28.8067,-55.01854 -71.2119,-101.19251 -124.44481,-135.5049 -28.01505,-18.0577 -50.32865,-26.69555 -89.35547,-34.59052 -5.30783,-1.07376 -6.14028,17.07035 -7.40185,25.9891 -1.47335,10.41595 -1.04991,29.11687 -0.11293,31.55874 0.93707,2.44189 8.13415,6.84572 15.99358,9.78632 76.1814,28.5031 137.87705,94.1126 168.40689,179.09017 17.73822,49.37297 22.78649,86.93397 23.04688,131.40271 0.26297,44.90653 -4.88993,80.17053 -21.71819,132.95985 -24.27916,76.16231 -76.20692,153.4159 -140.02345,208.314662 -26.10957,22.46101 -76.26822,59.428394 -94.65929,69.76473 l -10.58395,5.948524 -0.3281,189.031554 c -0.18044,103.9673 -1.07191,197.18561 -1.98103,207.15169 L 304.225,397.98668 Z M 254.3903,-814.00465 c 20.13154,-9.55306 28.32118,-40.69589 16.31799,-62.05269 -13.48617,-23.99541 -43.95613,-29.078 -63.87877,-10.6554 -20.62339,19.0706 -19.73589,49.38209 2.0048,68.47067 8.2281,7.22438 11.795,8.54318 23.10619,8.54318 7.35684,0 17.45925,-1.93759 22.44979,-4.30576 z"
       id="path5"
       sodipodi:nodetypes="ssssscsssssasaaaazzsssssssasssassscsscsssssss" />
    <path
       style="fill:#2cd0fc;fill-opacity:1;stroke-width:2.64137"
       d="m 70.517298,-169.82821 c 0.0291,-107.14037 1.15691,-202.43721 2.50598,-211.77076 9.16291,-63.39304 74.685522,-111.10908 138.470122,-100.83916 28.2,4.54048 49.64939,16.16651 73.17342,39.6616 31.13763,31.09931 44.65115,66.60302 44.65115,117.31078 0,112.07361 -62.10071,201.79338 -227.59415,328.8158599 C 86.229708,15.242395 72.857798,24.972482 72.008448,24.972482 c -0.84934,0 -1.52036,-87.66031 -1.49115,-194.800692 z"
       id="path6" />
    <path
       style="fill:#323232;stroke-width:2.64137"
       d="m 58.033328,-622.49066 c -22.51352,-22.88169 -38.16904,-48.29173 -42.62403,-77.40901 -6.15539,-40.23093 -0.0225,-91.3128 24.21889,-119.6712 l 6.6641,-7.81757 c 0,0 30.95436,13.63593 44.87663,23.07526 19.828132,13.44352 38.855742,28.8017 54.187402,47.20885 13.03919,15.65482 26.58142,36.46733 31.15559,52.58489 1.5596,5.49547 1.1608,5.74548 -5.26682,3.3017 -11.57182,-4.3996 -34.87213,-3.15597 -45.85581,2.44748 -12.78521,6.5225 -28.58294,24.01859 -35.205712,38.99047 -2.84931,6.44132 -6.13724,21.20144 -7.30653,32.8003 -1.16928,11.59883 -2.85009,21.81292 -3.73514,22.69797 -0.88504,0.88504 -10.38388,-7.30909 -21.10857,-18.20914 z"
       id="path7"
       sodipodi:nodetypes="sascaasssssss" />
  </g>
</svg>
